<svg width="315" height="290" viewBox="0 0 315 290" fill="none" xmlns="http://www.w3.org/2000/svg">
<path d="M54.1865 18.8861C54.1865 8.9995 63.0637 1.47894 72.8159 3.10366L263.531 34.8768C271.246 36.1622 276.901 42.8375 276.901 50.6593V202.824C276.901 213.014 267.503 220.607 257.541 218.467L66.826 177.496C59.4527 175.912 54.1865 169.395 54.1865 161.853V18.8861Z" fill="#38241B" fill-opacity="0.61"/>
<path d="M91.6348 58.9198C91.6348 49.0332 100.512 41.5126 110.264 43.1373L300.979 74.9105C308.695 76.1959 314.35 82.8712 314.35 90.693V242.858C314.35 253.047 304.952 260.641 294.989 258.501L104.274 217.53C96.9009 215.946 91.6348 209.429 91.6348 201.887V58.9198Z" fill="#38241B" fill-opacity="0.61"/>
<path d="M0.97168 86.2599C0.97168 76.3733 9.84885 68.8527 19.601 70.4774L210.316 102.251C218.031 103.536 223.687 110.211 223.687 118.033V270.198C223.687 280.387 214.288 287.981 204.326 285.841L13.6111 244.87C6.23783 243.286 0.97168 236.769 0.97168 229.227V86.2599Z" fill="#38241B" fill-opacity="0.61"/>
</svg>
