<svg width="590" height="147" viewBox="0 0 590 147" fill="none" xmlns="http://www.w3.org/2000/svg">
<path d="M392.799 146.82C393.095 144.995 392.76 142.53 393.825 141.485C396.448 138.891 396.714 136.268 396.685 132.709C396.546 114.663 396.882 96.6175 397.138 78.572C397.217 73.0006 397.404 67.4291 397.819 61.8774C398.321 55.0635 399.288 48.289 399.682 41.4751C399.84 38.862 398.992 36.1897 398.607 33.616C394.722 33.6751 391.961 38.7338 387.494 34.3851C395.235 27.2556 402.719 20.2642 410.391 13.4898C411.072 12.8882 412.995 13.7067 415.667 14.0223C411.358 17.4835 411.535 20.3135 412.275 24.2086C413.31 29.6124 412.452 35.3909 412.225 41.0018C412.038 45.5674 411.377 50.1133 411.289 54.6691C411.131 62.7649 411.239 70.8608 411.239 78.1874C415.923 73.6711 421.14 68.642 426.928 63.0706C433.791 70.6339 440.516 77.5268 446.551 84.9915C448.336 87.2003 448.593 90.9475 448.839 94.0438C449.559 102.8 450.279 111.586 450.299 120.373C450.318 129.188 449.48 138.014 449.017 146.829C444.747 146.829 440.467 146.829 436.197 146.829C435.842 132.314 435.547 117.789 435.093 103.274C435.014 100.877 435.073 97.8797 433.742 96.2428C429.255 90.7108 424.167 85.6719 419.315 80.4456C412.955 86.3129 409.77 92.683 410.253 101.154C410.835 111.281 410.391 121.457 410.441 131.614C410.46 135.006 411.811 138.063 415.184 138.763C417.097 139.158 419.424 137.708 421.514 136.929C422.362 136.614 423.053 135.884 423.812 135.341C424.187 135.509 424.561 135.677 424.946 135.844C424.611 137.067 424.591 138.536 423.871 139.473C421.889 142.047 419.621 144.394 417.462 146.82C409.228 146.82 401.014 146.82 392.799 146.82Z" fill="#3C221B"/>
<path d="M193.156 67.4488C204.437 60.2996 208.697 48.0227 204.003 38.1026C208.342 33.8821 212.681 29.6518 217.118 25.3426C224.82 29.5137 223.025 35.3218 221.053 42.3527C217.986 53.3082 208.628 59.2839 201.568 67.0346C194.596 74.6867 194.182 75.6531 198.067 84.8632C203.017 96.5682 210.294 106.4 221.329 112.987C222.581 113.736 225.303 113.204 226.624 112.267C227.689 111.508 228.143 109.21 228.064 107.632C227.679 100.493 226.259 93.3239 226.654 86.2438C227.019 79.844 239.197 71.3833 245.537 71.8073C247.303 71.9257 249.147 71.3537 250.843 71.6792C253.623 72.2116 257.568 72.4483 258.672 74.2529C259.727 75.9687 258.268 79.775 257.035 82.2106C255.97 84.3012 253.653 85.7507 251.888 87.4863C251.365 87.0129 250.833 86.5396 250.31 86.0663C251.336 84.7942 252.598 83.6503 253.318 82.2205C254.363 80.1596 256.237 76.4716 255.645 75.9687C253.042 73.7697 249.748 73.5133 246.859 76.1659C243.92 78.8579 240.972 81.5302 237.54 84.6562C235.884 93.0478 238.211 101.617 244.118 108.737C246.928 112.129 251.247 114.515 255.27 116.596C267.695 123.015 280.988 123.291 294.497 121.349C299.171 120.678 303.835 119.958 308.509 119.298C317.858 117.976 321.901 108.135 322.788 101.558C323.232 98.2741 322.867 94.882 321.832 91.7067C320.323 94.7636 319.12 98.0276 317.227 100.818C315.323 103.619 312.72 105.946 310.423 108.47C309.92 108.244 309.417 108.017 308.914 107.79C308.914 106.449 308.628 105.029 308.963 103.767C311.754 92.9887 307.8 83.394 298.294 77.6943C295.089 75.7714 291.973 74.5191 288.038 74.6769C277.033 75.1206 266.078 66.8177 269.066 51.8291C271.235 40.9426 278.029 34.4837 287.032 30.2237C291.036 28.3304 296.4 29.3165 301.705 28.9517C301.705 28.9615 301.804 27.9064 301.942 26.4371C300.256 26.4371 298.767 26.4371 297.288 26.4371C297.071 26.0427 296.844 25.6581 296.627 25.2637C300.147 21.98 303.441 18.4103 307.247 15.5013C310.068 13.3517 312.198 14.8111 312.75 18.2427C314.466 28.9319 311.576 34.3062 301.873 39.3057C300.049 40.2425 298.668 42.0371 297.86 42.757C293.057 41.6624 289.054 40.5284 284.971 39.9466C283.68 39.7593 281.491 40.6369 280.879 41.7019C275.406 51.1289 282.27 63.5439 293.195 63.8496C298.727 63.9975 304.388 63.9087 309.811 62.9128C316.753 61.6506 322.335 64.1552 325.441 69.4703C329.148 75.801 332.176 82.9798 333.487 90.1487C335.41 100.67 328.389 108.362 322.039 115.639C315.136 123.548 307.168 130.243 296.173 131.377C281.313 132.916 266.265 136.022 251.947 128.735C245.587 125.5 239.404 121.911 232.077 117.897C227.916 121.201 222.867 125.549 217.404 129.316C215.826 130.401 212.444 130.746 210.965 129.78C200.956 123.232 191.095 116.408 186.273 104.664C184.005 99.132 181.491 93.7085 178.72 87.4074C174.006 92.8703 169.322 98.3037 163.958 104.526C169.529 105.542 174.637 104.339 177.783 109.989C173.72 113.884 169.658 117.897 165.437 121.733C164.796 122.315 163.435 122.315 162.429 122.276C157.42 122.049 152.421 121.753 147.421 121.408C145.912 121.309 144.414 120.984 142.915 120.757C142.757 120.225 142.609 119.692 142.451 119.169C153.091 107.672 163.603 96.0455 174.47 84.7548C177.103 82.0233 177.211 79.9821 176.018 76.6491C172.576 66.9558 169.598 57.0948 166.423 47.2634C165.703 47.8847 163.938 49.3934 162.183 50.8923C157.045 47.3818 156.582 43.6346 160.733 39.4141C162.459 37.6589 164.648 36.1797 165.871 34.1287C169.135 28.6558 174.598 28.9024 179.657 28.6065C183.216 28.3995 184.133 31.2493 183.995 34.3949C183.492 46.2872 189.182 56.3059 193.156 67.4488Z" fill="#3C221B"/>
<path d="M62.479 82.2896C55.813 84.7647 50.3007 86.6778 44.9462 88.9655C44.0686 89.3402 43.5065 91.4209 43.5065 92.7127C43.4671 103.55 43.3191 114.407 43.8516 125.224C43.9897 128.015 46.4155 130.697 47.3621 132.59C37.1856 132.59 25.816 132.59 14.4956 132.59C14.4266 131.16 14.2885 130.638 14.4068 130.569C21.6546 126.427 23.3507 119.801 22.8873 112.08C22.5224 106.035 22.5618 99.9605 22.0688 93.9354C21.9406 92.3971 20.777 90.5038 19.505 89.6065C17.2567 88.0287 14.6238 86.9144 12.0304 85.9086C5.54185 83.3842 3.20481 77.655 0 71.1172C4.68395 69.9733 8.72694 68.9872 12.7798 68.0011C12.9277 68.3561 13.0855 68.7111 13.2334 69.076C10.7583 70.7326 8.27333 72.3893 4.56562 74.8742C10.5414 78.4537 15.6592 81.5205 21.911 85.2677C21.911 77.1324 22.0885 70.7622 21.8716 64.4019C21.4969 53.2787 21.1221 42.1359 20.1755 31.0522C19.929 28.2418 17.4933 25.6188 15.9156 22.6013C25.106 22.6013 34.8584 22.6013 43.5164 22.6013C43.0134 27.1768 42.126 31.841 42.0668 36.525C41.8794 51.1093 41.9978 65.6937 41.9978 80.2682C42.6387 80.6133 43.2797 80.9584 43.9108 81.3036C47.9045 79.0158 51.8489 76.6295 55.9116 74.4798C60.6547 71.9751 62.124 68.2871 61.7887 62.9326C60.9505 49.8767 60.8618 36.7518 60.1123 23.6663C59.9644 21.1518 58.1204 18.7358 56.947 16.0044C65.6936 16.0044 74.6868 16.0044 84.3801 16.0044C79.0947 23.0549 80.2385 31.0423 80.1991 38.8325C80.1695 45.5675 80.2977 52.3124 80.1498 59.0474C80.0709 62.4889 80.5245 64.4906 84.8041 63.1791C87.3877 62.3903 90.2572 62.5184 93.5015 62.8636C90.7897 64.5695 88.2653 67.0249 85.307 67.8236C80.8597 69.0267 80.347 71.985 80.3766 75.5152C80.5639 92.5154 80.8795 109.506 81.0471 126.506C81.1063 132.561 82.901 137.708 89.0936 142.461C76.6393 141.771 65.5556 141.15 52.7561 140.44C63.6031 133.33 62.0648 123.291 62.3902 114.022C62.7551 103.57 62.479 93.117 62.479 82.2896Z" fill="#3C221B"/>
<path d="M554.303 17.4835C560.022 11.5077 565.574 5.71935 571.056 0C571.53 0.0394438 572.062 -0.0295829 572.131 0.118331C575.198 6.56739 581.125 10.6104 580.681 19.9586C578.985 55.6453 579.241 91.4307 578.787 127.187C578.778 127.975 579.014 128.774 579.123 129.464C582.633 130.51 585.917 131.476 589.201 132.452C589.467 133.093 589.733 133.734 589.999 134.375C586.44 137.491 583.087 140.893 579.231 143.575C577.653 144.68 574.991 144.345 572.812 144.443C569.331 144.611 565.84 144.7 562.359 144.591C561.205 144.552 559.608 144.108 559.075 143.28C558.632 142.599 559.056 140.558 559.766 140.045C564.765 136.456 564.726 131.397 564.667 126.013C564.499 109.417 564.282 92.8211 564.696 76.235C565.13 59.1065 566.323 41.9879 567.023 24.8693C567.083 23.5282 566.175 21.8321 565.17 20.8362C563.681 19.3472 561.708 18.3414 560.436 16.6847C558.642 15.7184 557.034 21.5659 554.303 17.4835Z" fill="#3C221B"/>
<path d="M501.164 88.1765C501.164 91.4602 501.568 94.803 501.085 98.0079C499.626 107.889 487.605 118.006 477.636 116.842C473.839 116.399 470.289 112.996 466.848 110.62C458.949 105.137 455.34 97.7712 456.247 87.8708C456.878 81.0372 456.208 74.0852 456.159 67.1825C456.109 61.2265 458.742 56.8088 463.959 53.9393C468.682 51.3459 473.326 48.5651 478.208 46.2872C479.706 45.5871 482.251 45.5969 483.631 46.4252C487.812 48.9299 491.786 51.8389 495.553 54.9352C496.963 56.089 498.196 58.1203 498.452 59.9052C499.764 69.2829 500.73 78.71 501.815 88.1173C501.598 88.1469 501.381 88.1666 501.164 88.1765ZM485.692 88.709C485.071 81.9049 484.42 74.2627 483.621 66.6303C483.513 65.6442 482.872 64.3327 482.073 63.8594C478.78 61.9365 471.443 66.1866 471.591 69.9732C472.064 81.5795 472.508 93.2056 473.514 104.772C473.701 106.962 476.304 110.492 478.07 110.669C481.255 110.975 484.292 108.934 484.538 104.782C484.834 99.7237 485.258 94.665 485.692 88.709ZM481.304 51.6121C473.06 54.9352 471.315 56.8483 472.114 61.6407C479.391 59.0275 481.304 56.937 481.304 51.6121Z" fill="#3C221B"/>
<path d="M504.486 80.771C504.486 76.0082 504.437 71.2454 504.496 66.4825C504.565 61.5323 506.685 57.5485 510.807 54.8762C514.781 52.3025 519.07 50.212 523.064 47.658C527.314 44.9265 531.308 45.0843 535.302 47.9834C541.248 52.2926 547.411 55.9806 547.421 65.033C547.431 75.1207 549.205 85.2085 549.462 95.3061C549.748 106.646 537.007 118.43 525.746 116.842C521.831 116.29 518.38 112.444 514.722 110.097C506.281 104.694 503.717 96.7359 504.673 87.1708C504.89 85.0605 504.703 82.901 504.703 80.771C504.634 80.771 504.565 80.771 504.486 80.771ZM534.01 88.7288C533.388 81.9346 532.738 74.2924 531.939 66.6699C531.83 65.6739 531.209 64.3624 530.411 63.8891C527.147 61.9366 519.751 66.167 519.909 69.9634C520.382 81.5698 520.816 93.1958 521.831 104.763C522.019 106.962 524.652 110.561 526.348 110.679C529.809 110.916 532.738 108.727 532.895 104.329C533.073 99.4181 533.586 94.5369 534.01 88.7288ZM529.582 51.5629C520.993 55.2608 519.563 56.8484 520.5 61.6408C527.807 58.929 529.71 56.8089 529.582 51.5629Z" fill="#3C221B"/>
<path d="M373.841 65.5753C373.949 64.2441 373.634 62.6565 374.245 61.631C376.987 57.0062 376.533 53.5548 372.303 50.1923C368.979 47.5594 365.597 44.9955 362.254 42.4218C361.189 43.6347 360.824 43.8517 360.805 44.0982C359.809 55.8031 358.882 67.5179 357.856 79.2229C357.561 82.5657 357.561 85.5438 361.337 87.1609C363.25 87.9794 364.917 89.3895 366.741 90.4446C369.768 92.19 373.111 95.5428 375.823 95.099C378.762 94.6257 381.158 90.6221 383.712 88.0879C384.865 86.944 385.822 85.5931 386.867 84.3506C390.831 86.4214 390.782 89.6558 389.037 91.5984C383.524 97.7319 377.795 103.787 371.376 108.914C369.561 110.364 365.045 108.776 361.889 108.037C360.262 107.652 359.01 105.897 357.432 105.078C352.65 102.623 348.843 96.9134 342.148 100.434C341.625 100.71 340.353 99.566 339.377 99.0631C345.698 90.3263 345.54 80.3372 346.654 70.7425C347.216 65.881 347.354 60.8026 346.615 55.9905C345.451 48.3976 349.011 43.2206 353.892 38.3788C355.293 36.9884 356.693 35.6079 358.093 34.2175C365.173 27.1965 372.875 27.2261 380.221 34.2767C382.706 36.663 385.339 38.9113 387.646 41.4653C391.068 45.2519 390.733 50.4881 387.212 54.1662C383.376 58.1796 379.61 62.2621 375.813 66.3149C375.152 66.0684 374.502 65.8219 373.841 65.5753Z" fill="#3C221B"/>
<path d="M113.204 70.555C113.687 80.7019 113.825 90.8291 114.88 100.858C115.147 103.412 118.312 105.67 121.103 109.308C123.657 101.617 125.717 95.3848 127.778 89.202C133.024 91.4405 134.306 95.2862 131.003 100.207C129.543 102.386 128.015 104.536 126.408 106.607C121.743 112.641 115.709 112.474 109.536 108.204C99.4972 101.272 95.9768 92.4167 97.4658 80.554C98.4519 72.6652 97.949 64.599 98.5604 56.651C99.0732 50.0442 105.936 48.9496 109.644 45.0842C113.786 40.7749 117.809 39.6902 124.366 42.3428C134.681 46.514 136.801 55.0832 139.424 63.6918C141.061 69.0561 134.829 74.5684 129.445 73.2076C124.998 72.0834 120.511 71.0875 116.034 70.1014C115.452 69.9929 114.792 70.2887 113.204 70.555ZM126.102 66.9656C123.371 59.777 120.984 53.3969 118.47 47.0662C118.263 46.5436 116.961 45.8829 116.645 46.0801C115.778 46.6027 114.624 47.5001 114.545 48.3284C114.062 53.959 113.825 59.6093 113.49 65.5851C117.76 66.0584 121.418 66.4528 126.102 66.9656Z" fill="#3C221B"/>
</svg>
